<?xml version="1.0" standalone="no"?>
<!DOCTYPE svg PUBLIC "-//W3C//DTD SVG 20010904//EN"
 "http://www.w3.org/TR/2001/REC-SVG-20010904/DTD/svg10.dtd">
<svg version="1.0" xmlns="http://www.w3.org/2000/svg"
 width="1920.000000pt" height="1920.000000pt" viewBox="0 0 1920.000000 1920.000000"
 preserveAspectRatio="xMidYMid meet">
<metadata>
Created by potrace 1.14, written by Peter Selinger 2001-2017
</metadata>
<g transform="translate(0.000000,1920.000000) scale(0.100000,-0.100000)"
fill="#000000" stroke="none">
<path d="M8528 16765 c-2 -2 -109 -6 -238 -10 -316 -8 -517 -13 -745 -20 -209
-6 -491 -13 -745 -20 -91 -2 -277 -8 -415 -12 -137 -4 -441 -7 -675 -7 -378 0
-613 4 -1230 19 -96 3 -278 7 -405 10 -126 3 -320 7 -430 10 -650 17 -597 17
-591 -2 10 -36 26 -102 35 -144 6 -24 15 -64 21 -89 7 -25 14 -56 17 -70 2
-14 22 -97 44 -185 22 -88 43 -171 45 -185 3 -14 7 -33 10 -42 3 -9 7 -25 9
-35 12 -60 73 -304 76 -307 2 -2 90 -6 194 -10 105 -3 201 -8 215 -10 14 -2
61 -7 105 -11 44 -4 91 -9 105 -12 198 -37 259 -53 347 -93 187 -85 304 -224
360 -427 13 -47 15 -10917 3 -10993 -27 -157 -119 -289 -270 -385 -63 -40
-175 -92 -215 -99 -11 -2 -31 -9 -45 -14 -21 -8 -111 -28 -205 -46 -165 -31
-504 -59 -783 -65 -49 -1 -52 -3 -48 -23 5 -21 43 -191 51 -228 6 -26 32 -142
50 -220 9 -41 19 -84 21 -95 3 -11 9 -40 14 -65 5 -25 15 -74 24 -110 8 -36
29 -127 46 -203 l32 -137 131 5 c234 9 368 14 562 20 105 4 237 8 295 10 393
14 796 20 1495 19 712 0 1059 -4 1720 -19 105 -2 303 -7 440 -10 138 -3 340
-8 450 -10 646 -16 607 -16 601 3 -7 22 -67 270 -72 297 -2 11 -24 102 -48
201 -25 100 -47 192 -50 205 -2 13 -9 44 -16 69 -7 25 -14 54 -16 65 -8 44
-52 216 -55 219 -2 2 -87 7 -189 10 -102 4 -204 8 -226 10 -104 9 -180 17
-194 21 -8 2 -32 6 -53 9 -147 22 -311 73 -396 123 -94 55 -191 172 -235 283
-46 117 -45 53 -46 2388 l0 2202 646 0 c416 0 643 -3 639 -10 -5 -7 54 -94
118 -175 35 -44 369 -519 534 -761 148 -215 541 -803 805 -1204 96 -146 330
-499 519 -785 190 -286 395 -596 457 -690 61 -93 162 -247 224 -342 135 -206
219 -336 234 -363 5 -10 77 -118 160 -240 82 -121 154 -228 159 -238 6 -9 13
-19 16 -22 9 -8 149 -220 149 -226 0 -4 14 -23 30 -44 17 -21 30 -40 30 -43 0
-3 20 -35 45 -71 25 -37 45 -69 45 -72 0 -2 9 -17 19 -32 10 -15 48 -72 84
-127 56 -85 168 -248 194 -280 4 -5 60 -82 123 -170 63 -88 123 -170 134 -183
20 -22 21 -22 230 -17 908 22 1284 28 1811 29 286 0 619 -3 740 -7 121 -4 276
-10 345 -12 69 -2 217 -7 330 -10 113 -3 270 -8 350 -11 455 -15 473 -15 465
4 -12 30 -176 476 -187 507 -6 17 -25 71 -43 120 -19 50 -50 135 -70 190 -72
199 -75 205 -104 206 -14 0 -33 2 -41 3 -8 2 -44 6 -80 10 -125 13 -295 45
-408 77 -40 11 -81 22 -90 24 -101 20 -472 192 -609 282 -49 32 -92 60 -98 62
-5 2 -14 8 -20 13 -5 5 -35 27 -65 49 -85 63 -189 152 -259 219 -76 74 -240
280 -542 680 -101 134 -190 251 -196 260 -7 8 -57 76 -112 150 -55 74 -104
140 -108 145 -5 6 -26 35 -48 65 -22 30 -45 62 -52 70 -7 8 -122 164 -256 345
-253 344 -272 369 -517 705 -82 113 -244 333 -358 490 -115 157 -205 287 -200
288 4 2 -17 40 -49 85 -70 101 -324 458 -335 472 -5 6 -26 35 -48 65 -22 30
-43 60 -47 65 -5 6 -47 62 -93 125 -192 260 -301 406 -313 420 -7 8 -55 71
-106 140 -52 69 -123 162 -158 207 l-64 82 37 16 c20 8 38 15 39 15 12 0 326
145 453 209 276 138 611 344 787 483 189 150 195 155 299 248 175 157 434 448
522 586 10 16 21 31 24 34 3 3 31 44 62 91 191 293 357 669 441 1004 34 132
55 222 62 265 33 193 44 267 50 335 2 17 7 75 11 130 11 125 12 586 1 720 -10
129 -27 280 -42 370 -17 98 -49 250 -66 315 -12 41 -22 84 -25 94 -2 11 -10
40 -19 65 -8 25 -15 49 -15 53 -1 12 -65 186 -98 265 -109 260 -288 555 -472
774 -93 112 -314 326 -439 425 -13 11 -28 24 -35 29 -6 6 -27 22 -46 35 -19
13 -37 27 -40 31 -12 16 -337 224 -460 294 -441 253 -921 442 -1470 580 -120
30 -373 84 -470 100 -19 3 -42 8 -50 10 -8 2 -35 6 -60 9 -25 3 -56 8 -70 11
-30 6 -63 11 -215 31 -126 16 -156 20 -272 29 -39 3 -86 8 -103 10 -18 2 -85
7 -149 11 -64 3 -132 8 -151 11 -40 5 -857 12 -862 8z m442 -1288 c104 -13
255 -35 290 -42 14 -3 41 -8 60 -11 66 -12 273 -65 366 -95 403 -129 803 -368
1084 -649 225 -225 367 -452 505 -810 8 -19 24 -69 35 -110 12 -41 26 -86 31
-100 12 -35 67 -315 74 -375 3 -27 7 -65 10 -83 27 -197 27 -774 1 -932 -3
-14 -7 -50 -11 -81 -3 -31 -7 -65 -9 -75 -10 -58 -16 -93 -22 -127 -20 -135
-102 -416 -171 -587 -57 -142 -102 -235 -192 -395 -46 -80 -152 -232 -235
-336 -91 -114 -280 -310 -361 -374 -27 -22 -52 -43 -55 -46 -14 -17 -195 -142
-273 -187 -85 -50 -269 -141 -352 -174 -155 -62 -323 -116 -447 -144 -10 -2
-28 -6 -40 -9 -31 -8 -164 -34 -202 -40 -17 -3 -42 -7 -56 -10 -14 -2 -44 -7
-67 -10 -24 -3 -62 -8 -85 -11 -46 -6 -71 -9 -213 -21 -149 -13 -1142 -8
-1222 7 -2 0 -3 1287 -3 2860 l0 2860 23 14 c28 19 94 43 139 50 18 3 42 7 53
10 11 2 49 7 85 10 36 4 79 9 95 11 17 2 95 7 175 10 80 4 146 9 148 10 5 5
801 -3 842 -8z"/>
</g>
</svg>
